<mxfile host="65bd71144e">
    <diagram id="YndA5a6WynzzgKQvoGUn" name="Page-1">
        <mxGraphModel dx="1219" dy="457" grid="1" gridSize="10" guides="1" tooltips="1" connect="1" arrows="1" fold="1" page="1" pageScale="1" pageWidth="850" pageHeight="1100" math="0" shadow="0">
            <root>
                <mxCell id="0"/>
                <mxCell id="1" parent="0"/>
                <mxCell id="20" value="@altinn/altinn-design-system" style="shape=cube;whiteSpace=wrap;html=1;boundedLbl=1;backgroundOutline=1;darkOpacity=0.05;darkOpacity2=0.1;fillColor=none;fontColor=#FFFFFF;strokeColor=#FFFFFF;" parent="1" vertex="1">
                    <mxGeometry x="360" y="71" width="120" height="80" as="geometry"/>
                </mxCell>
                <mxCell id="43" style="edgeStyle=none;html=1;entryX=0;entryY=0.5;entryDx=0;entryDy=0;entryPerimeter=0;exitX=1;exitY=0.25;exitDx=0;exitDy=0;strokeColor=#FFFFFF;" parent="1" source="40" target="3" edge="1">
                    <mxGeometry relative="1" as="geometry">
                        <mxPoint x="-530" y="290" as="sourcePoint"/>
                    </mxGeometry>
                </mxCell>
                <mxCell id="3" value="Altinn/figma-design-tokens" style="shape=cylinder3;whiteSpace=wrap;html=1;boundedLbl=1;backgroundOutline=1;size=15;fillColor=none;fontColor=#FFFFFF;strokeColor=#FFFFFF;" parent="1" vertex="1">
                    <mxGeometry x="-520" y="60" width="80" height="120" as="geometry"/>
                </mxCell>
                <mxCell id="4" value="@altinn/figma-design-tokens" style="shape=cube;whiteSpace=wrap;html=1;boundedLbl=1;backgroundOutline=1;darkOpacity=0.05;darkOpacity2=0.1;fillColor=none;fontColor=#FFFFFF;strokeColor=#FFFFFF;" parent="1" vertex="1">
                    <mxGeometry x="80" y="70" width="120" height="80" as="geometry"/>
                </mxCell>
                <mxCell id="12" value="" style="group;labelBorderColor=none;strokeColor=#FFFFFF;" parent="1" vertex="1" connectable="0">
                    <mxGeometry x="-360" y="50" width="400" height="280" as="geometry"/>
                </mxCell>
                <mxCell id="9" value="&lt;h1&gt;tokens.esm.js&lt;/h1&gt;&lt;p&gt;export const ComponentPanelColorBackgroundDefault = &quot;#e3f7ff&quot;;&lt;br&gt;&lt;span&gt;export const ComponentPanelColorBackgroundSuccess = &quot;#d4f9e4&quot;;&lt;br&gt;...&lt;/span&gt;&lt;/p&gt;" style="text;html=1;strokeColor=#FFFFFF;fillColor=none;spacing=5;spacingTop=-20;whiteSpace=wrap;overflow=hidden;rounded=0;dashed=1;fontColor=#FFFFFF;" parent="12" vertex="1">
                    <mxGeometry y="50" width="400" height="110" as="geometry"/>
                </mxCell>
                <mxCell id="10" value="&lt;h1&gt;tokens.json&lt;/h1&gt;&lt;p&gt;&lt;br&gt;&lt;/p&gt;" style="text;html=1;strokeColor=#FFFFFF;fillColor=none;spacing=5;spacingTop=-20;whiteSpace=wrap;overflow=hidden;rounded=0;dashed=1;fontColor=#FFFFFF;" parent="12" vertex="1">
                    <mxGeometry width="160" height="40" as="geometry"/>
                </mxCell>
                <mxCell id="11" value="&lt;h1&gt;tokens.css&lt;/h1&gt;&lt;p&gt;:root {&lt;br&gt;&lt;span&gt;&amp;nbsp; --component-panel-color-background-default: #e3f7ff;&lt;br&gt;&lt;/span&gt;&lt;span&gt;&amp;nbsp; --component-panel-color-background-success: #d4f9e4;&lt;br&gt;&lt;/span&gt;&lt;span&gt;&amp;nbsp; ...&lt;/span&gt;&lt;/p&gt;" style="text;html=1;strokeColor=#FFFFFF;fillColor=none;spacing=5;spacingTop=-20;whiteSpace=wrap;overflow=hidden;rounded=0;dashed=1;fontColor=#FFFFFF;" parent="12" vertex="1">
                    <mxGeometry y="170" width="400" height="110" as="geometry"/>
                </mxCell>
                <mxCell id="13" value="" style="endArrow=classic;html=1;exitX=1;exitY=0.5;exitDx=0;exitDy=0;exitPerimeter=0;entryX=0;entryY=0.5;entryDx=0;entryDy=0;strokeColor=#FFFFFF;" parent="1" source="3" target="10" edge="1">
                    <mxGeometry width="50" height="50" relative="1" as="geometry">
                        <mxPoint x="-440" y="150" as="sourcePoint"/>
                        <mxPoint x="-390" y="100" as="targetPoint"/>
                        <Array as="points">
                            <mxPoint x="-400" y="120"/>
                            <mxPoint x="-400" y="70"/>
                        </Array>
                    </mxGeometry>
                </mxCell>
                <mxCell id="14" value="" style="endArrow=classic;html=1;entryX=0;entryY=0.5;entryDx=0;entryDy=0;exitX=1;exitY=0.5;exitDx=0;exitDy=0;exitPerimeter=0;strokeColor=#FFFFFF;" parent="1" source="3" target="9" edge="1">
                    <mxGeometry width="50" height="50" relative="1" as="geometry">
                        <mxPoint x="-450" y="280" as="sourcePoint"/>
                        <mxPoint x="-400" y="230" as="targetPoint"/>
                        <Array as="points">
                            <mxPoint x="-400" y="120"/>
                            <mxPoint x="-400" y="155"/>
                        </Array>
                    </mxGeometry>
                </mxCell>
                <mxCell id="15" value="" style="endArrow=classic;html=1;entryX=0;entryY=0.5;entryDx=0;entryDy=0;exitX=1;exitY=0.5;exitDx=0;exitDy=0;exitPerimeter=0;strokeColor=#FFFFFF;" parent="1" source="3" target="11" edge="1">
                    <mxGeometry width="50" height="50" relative="1" as="geometry">
                        <mxPoint x="-460" y="310" as="sourcePoint"/>
                        <mxPoint x="-410" y="260" as="targetPoint"/>
                        <Array as="points">
                            <mxPoint x="-400" y="120"/>
                            <mxPoint x="-400" y="275"/>
                        </Array>
                    </mxGeometry>
                </mxCell>
                <mxCell id="16" value="" style="endArrow=classic;html=1;exitX=1;exitY=0;exitDx=0;exitDy=0;entryX=0;entryY=0;entryDx=0;entryDy=30;entryPerimeter=0;strokeColor=#FFFFFF;" parent="1" source="9" target="4" edge="1">
                    <mxGeometry width="50" height="50" relative="1" as="geometry">
                        <mxPoint x="120" y="230" as="sourcePoint"/>
                        <mxPoint x="170" y="180" as="targetPoint"/>
                    </mxGeometry>
                </mxCell>
                <mxCell id="17" value="Altinn/altinn-design-system" style="shape=cylinder3;whiteSpace=wrap;html=1;boundedLbl=1;backgroundOutline=1;size=15;fillColor=none;fontColor=#FFFFFF;strokeColor=#FFFFFF;" parent="1" vertex="1">
                    <mxGeometry x="240" y="60" width="80" height="120" as="geometry"/>
                </mxCell>
                <mxCell id="21" value="" style="endArrow=classic;html=1;exitX=1;exitY=0.5;exitDx=0;exitDy=0;exitPerimeter=0;entryX=-0.017;entryY=0.613;entryDx=0;entryDy=0;entryPerimeter=0;strokeColor=#FFFFFF;" parent="1" source="17" target="20" edge="1">
                    <mxGeometry width="50" height="50" relative="1" as="geometry">
                        <mxPoint x="380" y="107" as="sourcePoint"/>
                        <mxPoint x="350" y="140" as="targetPoint"/>
                    </mxGeometry>
                </mxCell>
                <mxCell id="23" value="Altinn/app-frontend-react" style="shape=cylinder3;whiteSpace=wrap;html=1;boundedLbl=1;backgroundOutline=1;size=15;fillColor=none;fontColor=#FFFFFF;strokeColor=#FFFFFF;" parent="1" vertex="1">
                    <mxGeometry x="520" y="211" width="80" height="120" as="geometry"/>
                </mxCell>
                <mxCell id="25" value="Altinn/altinn-authorization-admin" style="shape=cylinder3;whiteSpace=wrap;html=1;boundedLbl=1;backgroundOutline=1;size=15;fillColor=none;fontColor=#FFFFFF;strokeColor=#FFFFFF;" parent="1" vertex="1">
                    <mxGeometry x="520" y="351" width="80" height="120" as="geometry"/>
                </mxCell>
                <mxCell id="38" value="" style="endArrow=none;dashed=1;html=1;entryX=0;entryY=0;entryDx=70;entryDy=80;entryPerimeter=0;exitX=0;exitY=0.5;exitDx=0;exitDy=0;exitPerimeter=0;strokeColor=#FFFFFF;" parent="1" source="25" target="20" edge="1">
                    <mxGeometry width="50" height="50" relative="1" as="geometry">
                        <mxPoint x="480" y="446" as="sourcePoint"/>
                        <mxPoint x="420" y="371" as="targetPoint"/>
                        <Array as="points">
                            <mxPoint x="430" y="411"/>
                        </Array>
                    </mxGeometry>
                </mxCell>
                <mxCell id="39" value="" style="endArrow=none;dashed=1;html=1;entryX=0;entryY=0;entryDx=70;entryDy=80;entryPerimeter=0;exitX=0;exitY=0.5;exitDx=0;exitDy=0;exitPerimeter=0;strokeColor=#FFFFFF;" parent="1" source="28" target="20" edge="1">
                    <mxGeometry width="50" height="50" relative="1" as="geometry">
                        <mxPoint x="490" y="616" as="sourcePoint"/>
                        <mxPoint x="450" y="531" as="targetPoint"/>
                        <Array as="points">
                            <mxPoint x="430" y="550"/>
                        </Array>
                    </mxGeometry>
                </mxCell>
                <mxCell id="40" value="Figma" style="swimlane;labelBorderColor=none;strokeColor=#FFFFFF;" parent="1" vertex="1">
                    <mxGeometry x="-800" y="40" width="240" height="320" as="geometry"/>
                </mxCell>
                <mxCell id="41" value="&lt;h1 style=&quot;text-align: left&quot;&gt;tokens.json&lt;/h1&gt;&lt;p style=&quot;text-align: left&quot;&gt;{&lt;br&gt;&amp;nbsp; &quot;altinn&quot;: {&lt;br&gt;&amp;nbsp; &amp;nbsp; &quot;component&quot;: {&lt;br&gt;&amp;nbsp; &amp;nbsp; &amp;nbsp; &quot;panel&quot;: {&lt;br&gt;&amp;nbsp; &amp;nbsp; &amp;nbsp; &amp;nbsp; &quot;color&quot;: {&lt;br&gt;&amp;nbsp; &amp;nbsp; &amp;nbsp; &amp;nbsp; &amp;nbsp; &quot;background&quot;: {&lt;br&gt;&amp;nbsp; &amp;nbsp; &amp;nbsp; &amp;nbsp; &amp;nbsp; &amp;nbsp; &quot;default&quot;: {&lt;br&gt;&amp;nbsp; &amp;nbsp; &amp;nbsp; &amp;nbsp; &amp;nbsp; &amp;nbsp; &amp;nbsp; &quot;value&quot;: &quot;{colors.blue-00}&quot;,&lt;br&gt;&amp;nbsp; &amp;nbsp; &amp;nbsp; &amp;nbsp; &amp;nbsp; &amp;nbsp; &amp;nbsp; &quot;type&quot;: &quot;color&quot;&lt;br&gt;&amp;nbsp; &amp;nbsp; &amp;nbsp; &amp;nbsp; &amp;nbsp; &amp;nbsp; },&lt;br&gt;&amp;nbsp; &amp;nbsp; &amp;nbsp; &amp;nbsp; &amp;nbsp; &amp;nbsp; &quot;success&quot;: {&lt;br&gt;&amp;nbsp; &amp;nbsp; &amp;nbsp; &amp;nbsp; &amp;nbsp; &amp;nbsp; &amp;nbsp; &quot;value&quot;: &quot;{colors.success.calm}&quot;,&lt;br&gt;&amp;nbsp; &amp;nbsp; &amp;nbsp; &amp;nbsp; &amp;nbsp; &amp;nbsp; &amp;nbsp; &quot;type&quot;: &quot;color&quot;&lt;br&gt;&amp;nbsp; &amp;nbsp; &amp;nbsp; &amp;nbsp; &amp;nbsp; &amp;nbsp; },&lt;br&gt;&amp;nbsp; &amp;nbsp; &amp;nbsp; &amp;nbsp; &amp;nbsp; &amp;nbsp; ...&lt;/p&gt;" style="text;html=1;align=center;verticalAlign=middle;resizable=0;points=[];autosize=1;strokeColor=none;fillColor=none;color: red;fontColor=#FFFFFF;" parent="40" vertex="1">
                    <mxGeometry y="20" width="230" height="270" as="geometry"/>
                </mxCell>
                <mxCell id="44" value="NPM" style="text;html=1;strokeColor=none;fillColor=none;align=center;verticalAlign=middle;whiteSpace=wrap;rounded=0;fontColor=#FFFFFF;" parent="1" vertex="1">
                    <mxGeometry x="110" y="66" width="60" height="30" as="geometry"/>
                </mxCell>
                <mxCell id="45" value="NPM" style="text;html=1;strokeColor=none;fillColor=none;align=center;verticalAlign=middle;whiteSpace=wrap;rounded=0;fontColor=#FFFFFF;" parent="1" vertex="1">
                    <mxGeometry x="390" y="66" width="60" height="30" as="geometry"/>
                </mxCell>
                <mxCell id="47" value="" style="endArrow=none;dashed=1;html=1;entryX=0;entryY=0;entryDx=70;entryDy=80;entryPerimeter=0;exitX=0;exitY=0.5;exitDx=0;exitDy=0;exitPerimeter=0;strokeColor=#FFFFFF;" parent="1" source="23" target="20" edge="1">
                    <mxGeometry width="50" height="50" relative="1" as="geometry">
                        <mxPoint x="490" y="306" as="sourcePoint"/>
                        <mxPoint x="440" y="151" as="targetPoint"/>
                        <Array as="points">
                            <mxPoint x="430" y="271"/>
                        </Array>
                    </mxGeometry>
                </mxCell>
                <mxCell id="49" value="" style="endArrow=none;dashed=1;html=1;exitX=0;exitY=0;exitDx=120;exitDy=50;exitPerimeter=0;entryX=0;entryY=0.5;entryDx=0;entryDy=0;entryPerimeter=0;strokeColor=#FFFFFF;" parent="1" source="4" target="17" edge="1">
                    <mxGeometry width="50" height="50" relative="1" as="geometry">
                        <mxPoint x="190" y="320" as="sourcePoint"/>
                        <mxPoint x="240" y="270" as="targetPoint"/>
                    </mxGeometry>
                </mxCell>
                <mxCell id="28" value="..." style="shape=cylinder3;whiteSpace=wrap;html=1;boundedLbl=1;backgroundOutline=1;size=15;fillColor=none;fontColor=#FFFFFF;strokeColor=#FFFFFF;" parent="1" vertex="1">
                    <mxGeometry x="520" y="490" width="80" height="120" as="geometry"/>
                </mxCell>
            </root>
        </mxGraphModel>
    </diagram>
</mxfile>
